# xmcd
#
# Track frame offsets: 
#        150
#        5532
#        25432
#        40568
#        52149
#        67931
#        83591
#        97977
#        114175
#        129376
#        146204
#        163816
#        178913
#        190418
#        210283
#        228513
#        255063
#        274920
#        288597
#        324116
#
# Disc length: 4366 seconds
#
# Revision: 0
# Processed by: cddbd v1.5.2PL0 Copyright (c) Steve Scherf et al.
# Submitted via: ExactAudioCopy v0.99pb4
#
DISCID=10110c14
DTITLE=Da BOMB - То, что было
DYEAR=2004
DGENRE=Hip-Hop
TTITLE0=Интро
TTITLE1=По плану
TTITLE2=Такая разная Москва
TTITLE3=Не весело, Не скучно
TTITLE4=Когда - нибудь
TTITLE5=Если нельзя, но очень хочется
TTITLE6=День рожденья
TTITLE7=То и это
TTITLE8=Зачем мы появляемся на свет
TTITLE9=Любовь и пустота
TTITLE10=Спешим
TTITLE11=Чем старше мы с годами
TTITLE12=Не судите
TTITLE13=Желания, мечты и вожделения
TTITLE14=Часы
TTITLE15=Жизнь не идёт
TTITLE16=То, что было
TTITLE17=Лишнее
TTITLE18=Квартира
TTITLE19=Аутро
EXTD=
EXTT0=
EXTT1=
EXTT2=
EXTT3=
EXTT4=
EXTT5=
EXTT6=
EXTT7=
EXTT8=
EXTT9=
EXTT10=
EXTT11=
EXTT12=
EXTT13=
EXTT14=
EXTT15=
EXTT16=
EXTT17=
EXTT18=
EXTT19=
PLAYORDER=
